<?xml version="1.0" encoding="UTF-8" standalone="no"?><!DOCTYPE svg PUBLIC "-//W3C//DTD SVG 1.1//EN" "http://www.w3.org/Graphics/SVG/1.1/DTD/svg11.dtd"><svg width="100%" height="100%" viewBox="0 0 141 158" version="1.1" xmlns="http://www.w3.org/2000/svg" xmlns:xlink="http://www.w3.org/1999/xlink" xml:space="preserve" xmlns:serif="http://www.serif.com/" style="fill-rule:evenodd;clip-rule:evenodd;stroke-linejoin:round;stroke-miterlimit:2;"><g><rect x="0" y="0.46" width="140.032" height="157.54" style="fill:#fff;fill-rule:nonzero;"/><path d="M57.702,118.08c-0.747,0 -1.377,0.474 -1.615,1.12l-3.293,8.33l-0.29,0.948l-0.263,-0.966l-2.544,-8.099c0,-0.035 -0.023,-0.061 -0.03,-0.075l0,-0.022c-0.242,-0.681 -0.884,-1.161 -1.627,-1.161l-4.111,0c-0.923,0.052 -1.659,0.801 -1.659,1.736c0,0.248 0.119,0.577 0.199,0.889l0.537,1.693l-2.015,5.067l-0.319,0.938l-0.261,-0.948l-2.529,-8.117c-0.031,-0.035 -0.031,-0.061 -0.038,-0.075l0,-0.022c-0.235,-0.681 -0.893,-1.161 -1.627,-1.161l-4.109,0c-0.91,0.052 -1.657,0.801 -1.657,1.736c0,0.248 0.101,0.577 0.206,0.889l6.148,18.334c0.184,0.75 0.879,1.301 1.67,1.301c0.784,0 1.436,-0.502 1.65,-1.211l4.309,-10.873l0.318,-0.968l0.258,0.958l3.628,10.793c0.185,0.75 0.858,1.301 1.675,1.301c0.791,0 1.444,-0.525 1.667,-1.259l7.288,-18.579c0.105,-0.232 0.176,-0.486 0.176,-0.747c0,-0.966 -0.783,-1.75 -1.742,-1.75Z" style="fill:#231f20;fill-rule:nonzero;"/><path d="M88.356,118.08c-0.747,0 -1.385,0.474 -1.631,1.12l-3.272,8.33l-0.315,0.948l-0.238,-0.966l-2.564,-8.099c0,-0.035 0,-0.061 -0.01,-0.075l0,-0.022c-0.246,-0.681 -0.893,-1.161 -1.644,-1.161l-4.107,0c-0.923,0.052 -1.646,0.801 -1.646,1.736c0,0.248 0.093,0.577 0.196,0.889l0.539,1.693l-2.023,5.067l-0.329,0.938l-0.246,-0.948l-2.533,-8.117c-0.026,-0.035 -0.026,-0.061 -0.043,-0.075l0,-0.022c-0.226,-0.681 -0.872,-1.161 -1.615,-1.161l-4.116,0c-0.933,0.052 -1.662,0.801 -1.662,1.736c0,0.248 0.116,0.577 0.199,0.889l6.173,18.334c0.181,0.75 0.858,1.301 1.668,1.301c0.764,0 1.418,-0.502 1.648,-1.211l4.305,-10.873l0.302,-0.968l0.273,0.958l3.611,10.793c0.198,0.75 0.874,1.301 1.684,1.301c0.787,0 1.46,-0.525 1.672,-1.259l7.291,-18.579c0.109,-0.232 0.173,-0.486 0.173,-0.747c0,-0.966 -0.785,-1.75 -1.74,-1.75Z" style="fill:#231f20;fill-rule:nonzero;"/><path d="M108.267,118.117l-14.372,0c-0.834,0 -1.498,0.673 -1.498,1.504l0,19.094c0,0.01 0,-0.008 0,0l0.004,0c0.034,0.862 0.747,1.564 1.61,1.564l4.071,0c0.885,-0.026 1.571,-0.721 1.593,-1.613l0,-8.916c0,0 5.83,-0.014 5.857,-0.014c0.858,-0.008 1.548,-0.704 1.548,-1.583c0,-0.854 -0.701,-1.567 -1.583,-1.567l-5.814,0l-0.008,-5.099l8.675,0c0.892,-0.04 1.606,-0.775 1.606,-1.686c0,-0.935 -0.764,-1.684 -1.689,-1.684Z" style="fill:#231f20;fill-rule:nonzero;"/><path d="M85.975,57.282c2.617,2.93 2.897,11.644 9.468,8.176c3.953,-2.081 3.897,-10.877 -1.373,-14.048c-4.266,-2.522 -6.599,0.878 -8.143,5.049c-0.12,0.327 -0.127,0.656 0.048,0.823Z" style="fill:#231f20;fill-rule:nonzero;"/><path d="M75.768,55.888c-2.747,2.279 -4.634,8.523 -9.687,6.402c-4.084,-2.077 -4.476,-10.169 2.563,-13.907c4.904,-2.255 7.393,2.212 7.427,6.952c0,0.166 -0.161,0.416 -0.303,0.553Z" style="fill:#231f20;fill-rule:nonzero;"/><path d="M82.55,71.817c2.713,-0.281 2.101,-2.796 0.044,-3.428c-1.835,-0.547 -4.623,-0.904 -6.593,-0.868c-3.49,0.081 -3.404,2.745 -1.587,3.197c1.373,0.459 2.257,0.641 3.444,2.166c1.082,2.102 0.602,-0.629 4.692,-1.067Z" style="fill:#231f20;fill-rule:nonzero;"/><path d="M95.354,26.779c3.408,-5.675 9.337,-4.575 12.308,-1.747c3.269,3.073 3.796,6.622 2.542,9.119c-1.706,3.349 -6.068,7.419 -8.909,3.481c-1.253,-1.737 -3.918,-3.816 -5.369,-4.416c-2.234,-0.94 -2.658,-2.955 -0.572,-6.437Z" style="fill:#231f20;fill-rule:nonzero;"/><path d="M108.92,51.803c-0.306,-1.005 -0.805,-0.948 -0.783,-0.119c0.276,10.345 -5.9,21.423 -19.12,21.5c-3.381,0.006 -2.366,5.42 -8.531,2.699c-4.449,-3 -6.995,2.905 -10.156,-3.448c-0.687,-1.831 -1.731,-2.564 -3.079,-2.899c-13.051,-3.234 -17.215,-21.198 -5.713,-35.701c2.277,1.357 3.109,1.567 5.536,-0.66c1.268,-1.169 3.391,-2.461 4.548,-2.887c2.766,-1.058 4.266,-2.237 1.869,-7.512c-3.066,-6.847 -9.353,-4.914 -12.226,-2.547c-3.244,2.678 -5.523,6.988 -1.343,12.066c-11.691,7.887 -13.696,17.575 -13.427,25.995c0.276,8.957 -2.015,8.194 0.844,17.31c0.252,0.8 -0.307,0.782 -0.738,0.523c-12.186,-7.804 -18.773,-31.597 0.219,-44.717c0.428,-0.383 0.252,-0.882 -1.31,0.033c-16.441,8.694 -17.951,25.534 -15.224,36.88c1.333,5.495 -0.694,6.508 1.437,13.727c4.892,15.046 9.065,16.235 14.957,16.669c10.726,0 3.453,-5.915 3.844,-13.346c0,-0.434 0.531,-0.646 0.834,0.248c5.903,13.241 10.071,25.287 25.585,24.16c8.984,-1.169 4.001,-5.632 3.452,-8.16c-6.605,-21.921 9.423,-27.087 4.885,-5.714c-2.995,12.243 6.477,11.016 13.145,6.623c6.876,-4.516 15.474,-34.32 10.495,-50.723Zm-26.139,25.929c-1.485,3.931 -9.195,2.582 -9.439,-1.223c0,-0.151 0.206,-0.117 0.295,-0.097c3.433,0.804 6.7,1.183 8.913,1.175c0.082,0 0.263,-0.047 0.231,0.145Z" style="fill:#231f20;fill-rule:nonzero;"/><path d="M48.353,104.298c0,1.59 -1.299,2.873 -2.873,2.873c-1.587,0 -2.871,-1.283 -2.871,-2.873c0,-1.575 1.284,-2.863 2.871,-2.863c1.574,0 2.873,1.288 2.873,2.863Zm-2.873,-3.438c-1.901,0 -3.446,1.55 -3.446,3.438c0,1.903 1.549,3.452 3.446,3.452c1.902,0 3.428,-1.549 3.428,-3.452c0,-1.888 -1.526,-3.438 -3.428,-3.438Z" style="fill:#231f20;fill-rule:nonzero;"/><path d="M46.461,104.835c-0.067,0.418 -0.418,0.709 -0.897,0.709c-0.66,0 -1.082,-0.585 -1.082,-1.254c0,-0.698 0.382,-1.219 1.078,-1.219c0.465,0 0.808,0.269 0.901,0.678l0.48,0c-0.085,-0.761 -0.678,-1.187 -1.394,-1.187c-1.027,0 -1.616,0.747 -1.616,1.728c0,0.986 0.638,1.737 1.633,1.737c0.699,0 1.258,-0.453 1.402,-1.192l-0.505,0Z" style="fill:#231f20;fill-rule:nonzero;"/><path d="M108.842,112.512c0,1.593 -1.296,2.874 -2.873,2.874c-1.599,0 -2.887,-1.281 -2.887,-2.874c0,-1.583 1.288,-2.859 2.887,-2.859c1.577,0 2.873,1.276 2.873,2.859Zm-2.873,-3.44c-1.915,0 -3.441,1.536 -3.441,3.44c0,1.917 1.526,3.442 3.441,3.442c1.892,0 3.437,-1.525 3.437,-3.442c0,-1.904 -1.545,-3.44 -3.437,-3.44Z" style="fill:#231f20;fill-rule:nonzero;"/><path d="M105.371,112.747l0.564,0l0.865,1.399l0.537,0l-0.929,-1.435c0.485,-0.061 0.849,-0.315 0.849,-0.883c0,-0.648 -0.374,-0.924 -1.139,-0.924l-1.253,0l0,3.242l0.506,0l0,-1.399Zm0,-0.43l0,-1.012l0.668,0c0.339,0 0.704,0.091 0.704,0.487c0,0.503 -0.365,0.525 -0.796,0.525l-0.576,0Z" style="fill:#231f20;fill-rule:nonzero;"/></g></svg>