<?xml version="1.0" encoding="UTF-8" standalone="no"?>
<svg width="24px" height="23px" viewBox="0 0 24 23" version="1.1" xmlns="http://www.w3.org/2000/svg" xmlns:xlink="http://www.w3.org/1999/xlink">
    <!-- Generator: Sketch 43.1 (39012) - http://www.bohemiancoding.com/sketch -->
    <title>favorite-3-icon copy 2</title>
    <desc>Created with Sketch.</desc>
    <defs></defs>
    <g id="Symbols" stroke="none" stroke-width="1" fill="none" fill-rule="evenodd">
        <g id="Mobile-Header" transform="translate(-194.000000, -60.000000)" fill-rule="nonzero" fill="#FE6A22">
            <path d="M201.414551,62.9723312 C201.995086,62.9723312 202.762215,63.4355887 203.714728,64.3619359 C203.954461,64.5950835 204.10637,64.752529 204.542885,65.2136324 L205.622171,66.3537168 L206.701431,65.2136063 C207.137554,64.7528937 207.28979,64.5951065 207.529547,64.3619361 C208.482031,63.4356174 209.249198,62.9723312 209.829641,62.9723312 C212.662879,62.9723312 214.644946,65.3532099 214.212109,67.961623 C213.829734,70.2659832 211.831593,72.8116676 204.585787,79.8612885 L206.658519,79.8613035 C199.439448,72.8374905 197.416046,70.2749709 197.032183,67.9616293 C196.599934,65.3568542 198.576999,62.9723312 201.414551,62.9723312 Z M204.585771,81.9916722 L205.62213,83 L206.658504,81.9916872 C214.398172,74.4615754 216.615205,71.6370167 217.144344,68.44819 C217.875661,64.0410501 214.51151,60 209.829641,60 C208.258517,60 206.920657,60.8079229 205.457263,62.2311167 C205.177437,62.5032554 205.008456,62.6783978 204.54286,63.1702452 L205.622145,64.1919257 L206.701406,63.170219 C206.235415,62.6779788 206.066803,62.5032216 205.787013,62.2311169 C204.323592,60.8078974 202.985758,60 201.414551,60 C196.725487,60 193.369663,64.0474323 194.099949,68.4482035 C194.63138,71.6508581 196.865413,74.4801303 204.585771,81.9916722 Z" id="favorite-3-icon-copy-2"></path>
        </g>
    </g>
</svg>