<?xml version="1.0" encoding="UTF-8"?>
<svg width="100%" height="100%" viewBox="0 0 78 103" version="1.1" xmlns="http://www.w3.org/2000/svg" xmlns:xlink="http://www.w3.org/1999/xlink">
    <!-- Generator: Sketch 46.2 (44496) - http://www.bohemiancoding.com/sketch -->
    <title>wwf_logo_free_tab</title>
    <desc>Created with Sketch.</desc>
    <defs></defs>
    <g id="Page-1" stroke="none" stroke-width="1" fill="none" fill-rule="evenodd">
        <g id="wwf_logo_free_tab">
            <polygon id="Fill-1" fill="#FFFFFE" points="0.13 102.83 77.56008 102.83 77.56008 0.24544 0.13 0.24544"></polygon>
            <polygon id="Stroke-2" stroke="#1A1919" stroke-width="0.25" points="0.13 102.83 77.56008 102.83 77.56008 0.24544 0.13 0.24544"></polygon>
            <path d="M32.16096,72.70744 C31.75328,72.70744 31.41112,72.96536 31.28112,73.31688 L29.4892,77.85024 L29.33008,78.36608 L29.18864,77.84088 L27.80232,73.43232 C27.80232,73.41464 27.79192,73.40008 27.78672,73.39176 L27.78672,73.38032 C27.65568,73.01008 27.3052,72.748 26.90064,72.748 L24.66568,72.748 C24.16024,72.77608 23.76192,73.1848 23.76192,73.69232 C23.76192,73.82856 23.8264,74.00744 23.86904,74.17592 L24.16024,75.0984 L23.06408,77.85648 L22.89248,78.36608 L22.75,77.85024 L21.372,73.43232 C21.3564,73.41464 21.3564,73.40008 21.35224,73.39176 L21.35224,73.38032 C21.22328,73.01008 20.86552,72.748 20.4672,72.748 L18.23016,72.748 C17.73512,72.77608 17.32744,73.1848 17.32744,73.69232 C17.32744,73.82856 17.38256,74.00744 17.43976,74.17592 L20.78648,84.15368 C20.88736,84.56136 21.26384,84.86296 21.69544,84.86296 C22.12184,84.86296 22.47648,84.5884 22.594,84.20464 L24.93816,78.28704 L25.11184,77.75872 L25.25224,78.2808 L27.2272,84.15368 C27.32808,84.56136 27.69416,84.86296 28.13928,84.86296 C28.5688,84.86296 28.92448,84.57592 29.04616,84.17552 L33.01272,74.06672 C33.07096,73.94088 33.1084,73.80256 33.1084,73.66008 C33.1084,73.13384 32.682,72.70744 32.16096,72.70744" id="Fill-4" fill="#1A1919"></path>
            <path d="M48.84568,72.70744 C48.44008,72.70744 48.09272,72.96536 47.95856,73.31688 L46.17704,77.85024 L46.0044,78.36608 L45.8744,77.84088 L44.47872,73.43232 C44.47872,73.41464 44.47872,73.40008 44.47456,73.39176 L44.47456,73.38032 C44.3404,73.01008 43.98888,72.748 43.57912,72.748 L41.34208,72.748 C40.84288,72.77608 40.44664,73.1848 40.44664,73.69232 C40.44664,73.82856 40.49968,74.00744 40.55688,74.17592 L40.84704,75.0984 L39.74776,77.85648 L39.56888,78.36608 L39.43368,77.85024 L38.05568,73.43232 C38.04008,73.41464 38.04008,73.40008 38.0328,73.39176 L38.0328,73.38032 C37.908,73.01008 37.55648,72.748 37.154,72.748 L34.9128,72.748 C34.40424,72.77608 34.00904,73.1848 34.00904,73.69232 C34.00904,73.82856 34.07248,74.00744 34.1172,74.17592 L37.47536,84.15368 C37.5752,84.56136 37.94232,84.86296 38.38328,84.86296 C38.80032,84.86296 39.15496,84.5884 39.2808,84.20464 L41.62496,78.28704 L41.7872,77.75872 L41.93592,78.2808 L43.9036,84.15368 C44.00968,84.56136 44.3768,84.86296 44.81776,84.86296 C45.24624,84.86296 45.61232,84.57592 45.72984,84.17552 L49.69952,74.06672 C49.75568,73.94088 49.79,73.80256 49.79,73.66008 C49.79,73.13384 49.36568,72.70744 48.84568,72.70744" id="Fill-5" fill="#1A1919"></path>
            <path d="M59.68248,72.72824 C59.67,72.72824 51.85856,72.72824 51.85856,72.72824 C51.40512,72.72824 51.04424,73.09328 51.04424,73.54672 L51.04424,73.55088 C51.04424,73.55088 51.04424,74.35688 51.04424,75.52896 C51.04424,78.35048 51.04424,83.93632 51.04424,83.93632 C51.04424,83.94464 51.04424,83.93424 51.04424,83.93632 L51.04528,83.93632 C51.06608,84.40536 51.454,84.78704 51.92096,84.78704 C53.32496,84.78704 54.13928,84.78704 54.13928,84.78704 C54.61872,84.77352 54.99208,84.39496 55.00456,83.91136 C55.00456,83.9956 55.00456,79.05872 55.00456,79.05872 C55.00456,79.05872 58.17968,79.05144 58.19216,79.05144 C58.6612,79.04728 59.03456,78.66768 59.03456,78.19032 C59.03456,77.7244 58.65288,77.33648 58.17552,77.33648 C58.16512,77.33648 55.00872,77.33648 55.00872,77.33648 L55.00456,74.56176 C55.00456,74.56176 59.70536,74.56176 59.72512,74.56176 C60.21288,74.53992 60.6008,74.13952 60.6008,73.64344 C60.6008,73.13592 60.1848,72.72824 59.68248,72.72824" id="Fill-6" fill="#1A1919"></path>
            <path d="M47.54984,39.61672 C48.9736,41.21104 49.1244,45.95344 52.70096,44.06688 C54.85272,42.93328 54.8236,38.14616 51.95424,36.41872 C49.634,35.048 48.36416,36.89816 47.52176,39.16744 C47.45832,39.34632 47.45208,39.5252 47.54984,39.61672" id="Fill-7" fill="#1A1919"></path>
            <path d="M41.99416,38.85648 C40.49968,40.09824 39.47216,43.49592 36.72032,42.34256 C34.49888,41.21104 34.28568,36.80768 38.11496,34.77136 C40.78568,33.5452 42.1408,35.97672 42.15744,38.55592 C42.15744,38.64536 42.07008,38.7816 41.99416,38.85648" id="Fill-8" fill="#1A1919"></path>
            <path d="M45.68304,47.52592 C47.15984,47.37408 46.82704,46.0044 45.71008,45.6612 C44.70856,45.36272 43.1912,45.16824 42.12,45.188 C40.22096,45.23272 40.26776,46.68352 41.2568,46.92896 C42.00248,47.17856 42.484,47.27632 43.13192,48.10728 C43.7216,49.25024 43.45952,47.76616 45.68304,47.52592" id="Fill-9" fill="#1A1919"></path>
            <path d="M52.65208,23.01312 C54.50744,19.92536 57.73664,20.52232 59.35384,22.06256 C61.13328,23.73592 61.4172,25.66824 60.73704,27.02648 C59.80624,28.84856 57.43192,31.0648 55.88856,28.92032 C55.20632,27.97496 53.75344,26.84344 52.96512,26.51688 C51.74832,26.0052 51.51744,24.908 52.65208,23.01312" id="Fill-10" fill="#1A1919"></path>
            <path d="M45.80888,50.74576 C45.00288,52.88504 40.8044,52.1508 40.67232,50.0812 C40.67232,49.998 40.78568,50.01672 40.83248,50.02816 C42.70344,50.46496 44.47872,50.67296 45.68512,50.66672 C45.72776,50.66672 45.82968,50.64176 45.80888,50.74576 Z M60.03608,36.63504 C59.87176,36.08592 59.5972,36.11608 59.61176,36.56952 C59.75944,42.20008 56.40024,48.22896 49.20344,48.2716 C47.36264,48.27368 47.91592,51.22104 44.55984,49.74008 C42.1408,48.10728 40.75552,51.32088 39.03536,47.86288 C38.65992,46.86552 38.09104,46.46824 37.35784,46.2852 C30.25464,44.52552 27.98848,34.74744 34.24928,26.85384 C35.48688,27.59328 35.94136,27.70768 37.26112,26.49504 C37.95064,25.85856 39.10816,25.15552 39.73736,24.92464 C41.2412,24.34744 42.0576,23.70576 40.75552,20.83536 C39.08632,17.108 35.66368,18.16048 34.09952,19.448 C32.33464,20.90608 31.09392,23.25232 33.36944,26.0156 C27.00464,30.30872 25.91368,35.58256 26.06136,40.1648 C26.21008,45.04032 24.96416,44.62328 26.52,49.58616 C26.65728,50.02088 26.35256,50.01048 26.11856,49.87008 C19.48544,45.62272 15.90056,32.67368 26.23712,25.532 C26.47008,25.32504 26.3744,25.05256 25.52472,25.54968 C16.57552,30.28272 15.75288,39.44824 17.238,45.62272 C17.96288,48.61272 16.86152,49.16496 18.02008,53.09408 C20.68352,61.28408 22.95488,61.92992 26.1612,62.16704 C31.99976,62.16704 28.04152,58.94824 28.25472,54.90368 C28.25472,54.66552 28.5428,54.55216 28.70712,55.03784 C31.91968,62.24504 34.18896,68.8012 42.6348,68.1876 C47.52176,67.55216 44.80944,65.12272 44.51304,63.74784 C40.91776,51.81592 49.64024,49.00272 47.17024,60.63616 C45.5416,67.30048 50.6948,66.63176 54.3244,64.2408 C58.06528,61.78328 62.74736,45.56136 60.03608,36.63504 L60.03608,36.63504 Z" id="Fill-11" fill="#1A1919"></path>
            <path d="M25.50704,63.33496 C24.47432,63.33496 23.63296,64.1784 23.63296,65.20592 C23.63296,66.24176 24.4764,67.0852 25.50704,67.0852 C26.54392,67.0852 27.37488,66.24176 27.37488,65.20592 C27.37488,64.1784 26.54392,63.33496 25.50704,63.33496 Z M27.07224,65.20592 C27.07224,66.0712 26.36608,66.77008 25.50704,66.77008 C24.64488,66.77008 23.946,66.0712 23.946,65.20592 C23.946,64.34896 24.64488,63.648 25.50704,63.648 C26.36608,63.648 27.07224,64.34896 27.07224,65.20592 L27.07224,65.20592 Z" id="Fill-12" fill="#1A1919"></path>
            <path d="M26.0416,65.49816 C26.0052,65.72592 25.81384,65.88504 25.55488,65.88504 C25.19504,65.88504 24.9652,65.56576 24.9652,65.20176 C24.9652,64.82216 25.17216,64.53824 25.55176,64.53824 C25.80448,64.53824 25.99064,64.68384 26.0416,64.90744 L26.30368,64.90744 C26.25688,64.49352 25.93448,64.2616 25.54448,64.2616 C24.98496,64.2616 24.66568,64.66824 24.66568,65.20176 C24.66568,65.7384 25.01304,66.14608 25.55488,66.14608 C25.93448,66.14608 26.2392,65.90064 26.31616,65.49816 L26.0416,65.49816" id="Fill-13" fill="#1A1919"></path>
            <path d="M58.43136,67.80384 C57.3872,67.80384 56.55624,68.64104 56.55624,69.67688 C56.55624,70.72104 57.3872,71.54992 58.43136,71.54992 C59.45888,71.54992 60.30024,70.72104 60.30024,69.67688 C60.30024,68.64104 59.45888,67.80384 58.43136,67.80384 Z M59.99552,69.67688 C59.99552,70.54424 59.28832,71.24104 58.43136,71.24104 C57.55984,71.24104 56.86096,70.54424 56.86096,69.67688 C56.86096,68.81576 57.55984,68.12104 58.43136,68.12104 C59.28832,68.12104 59.99552,68.81576 59.99552,69.67688 L59.99552,69.67688 Z" id="Fill-14" fill="#1A1919"></path>
            <path d="M58.10688,69.5708 L58.10688,69.02064 L58.46776,69.02064 C58.65288,69.02064 58.8536,69.06952 58.8536,69.2848 C58.8536,69.55936 58.65288,69.5708 58.41888,69.5708 L58.10688,69.5708 Z M58.10688,69.8048 L58.4116,69.8048 L58.8848,70.56608 L59.17496,70.56608 L58.6716,69.78504 C58.93368,69.75176 59.13232,69.61344 59.13232,69.3056 C59.13232,68.952 58.92744,68.8012 58.51248,68.8012 L57.83024,68.8012 L57.83024,70.56608 L58.10688,70.56608 L58.10688,69.8048 L58.10688,69.8048 Z" id="Fill-15" fill="#1A1919"></path>
            <polygon id="Stroke-16" stroke="#1A1919" stroke-width="1.25" points="5.73456 96.59 71.85672 96.59 71.85672 5.95504 5.73456 5.95504"></polygon>
        </g>
    </g>
</svg>
