<svg version="1.1" xmlns="http://www.w3.org/2000/svg" xmlns:xlink="http://www.w3.org/1999/xlink" preserveAspectRatio="xMidYMid meet" width="48" height="48" style=""><rect id="backgroundrect" width="100%" height="100%" x="0" y="0" fill="none" stroke="none"/><defs><path d="M24 0C10.75 0 0 10.75 0 24C0 37.25 10.75 48 24 48C37.25 48 48 37.25 48 24C48 10.75 37.25 0 24 0Z" id="b25Ao6D0KP"/><path d="M26.63 18.56L27.75 19.27L28.68 20.21L29.4 21.32L29.85 22.58L30.01 23.95L29.85 25.32L29.4 26.58L28.7 27.7L27.77 28.63L26.65 29.35L25.38 29.81L24 29.97L22.62 29.81L21.35 29.36L20.23 28.65L19.3 27.72L18.6 26.6L18.15 25.34L17.99 23.95L18.15 22.57L18.6 21.3L19.32 20.19L20.25 19.26L21.37 18.55L22.63 18.1L24 17.94L25.37 18.1L26.63 18.56ZM21.28 21.23L20.45 22.46L20.15 23.95L20.45 25.45L21.28 26.67L22.51 27.5L24 27.81L25.49 27.5L26.72 26.67L27.55 25.45L27.85 23.95L27.55 22.46L26.72 21.23L25.49 20.41L24 20.1L22.51 20.41L21.28 21.23Z" id="a1xZ10VLTc"/><path d="M30.25 16.44C29.5 16.44 28.89 17.05 28.89 17.8C28.89 18.55 29.5 19.16 30.25 19.16C31 19.16 31.61 18.55 31.61 17.8C31.61 17.05 31 16.44 30.25 16.44Z" id="g1IxsBKhxG"/><path d="M29.57 12.38L29.92 12.42L30.27 12.47L30.61 12.54L30.94 12.62L31.27 12.72L31.59 12.84L31.89 12.97L32.19 13.11L32.48 13.27L32.76 13.44L33.03 13.63L33.29 13.83L33.54 14.05L33.77 14.28L33.99 14.51L34.2 14.76L34.4 15.01L34.58 15.28L34.75 15.55L34.9 15.84L35.04 16.13L35.17 16.44L35.28 16.75L35.38 17.07L35.46 17.4L35.53 17.74L35.58 18.08L35.62 18.44L35.64 18.79L35.65 19.16L35.65 28.84L35.64 29.21L35.62 29.58L35.58 29.94L35.53 30.3L35.46 30.64L35.38 30.98L35.28 31.31L35.16 31.63L35.03 31.94L34.89 32.24L34.73 32.53L34.56 32.81L34.37 33.08L34.17 33.34L33.95 33.58L33.72 33.82L33.49 34.03L33.24 34.23L32.99 34.42L32.72 34.6L32.45 34.76L32.16 34.91L31.86 35.05L31.56 35.17L31.24 35.28L30.92 35.38L30.58 35.46L30.24 35.53L29.89 35.58L29.53 35.62L29.17 35.64L28.79 35.65L19.21 35.65L18.85 35.64L18.5 35.62L18.15 35.59L17.81 35.54L17.48 35.47L17.15 35.39L16.83 35.3L16.52 35.19L16.21 35.07L15.92 34.93L15.63 34.78L15.35 34.62L15.08 34.44L14.82 34.25L14.57 34.04L14.32 33.82L14.08 33.57L13.86 33.32L13.65 33.06L13.46 32.78L13.28 32.5L13.12 32.2L12.97 31.9L12.84 31.59L12.73 31.27L12.63 30.94L12.54 30.6L12.47 30.25L12.42 29.9L12.38 29.54L12.36 29.17L12.35 28.79L12.35 19.16L12.38 18.41L12.48 17.7L12.63 17.02L12.84 16.37L13.11 15.77L13.43 15.21L13.8 14.69L14.22 14.22L14.69 13.8L15.21 13.43L15.77 13.11L16.37 12.84L17.02 12.63L17.7 12.48L18.41 12.38L19.16 12.35L28.84 12.35L29.21 12.36L29.57 12.38ZM18.89 14.52L18.57 14.54L18.27 14.58L17.97 14.63L17.68 14.7L17.4 14.78L17.13 14.87L16.87 14.98L16.63 15.1L16.4 15.24L16.18 15.39L15.97 15.55L15.78 15.73L15.59 15.93L15.42 16.15L15.26 16.37L15.12 16.6L14.99 16.85L14.88 17.1L14.78 17.37L14.7 17.64L14.63 17.93L14.58 18.22L14.54 18.53L14.52 18.84L14.51 19.16L14.51 28.79L14.52 29.12L14.54 29.44L14.58 29.75L14.63 30.05L14.7 30.34L14.78 30.62L14.88 30.89L14.99 31.15L15.12 31.4L15.26 31.63L15.42 31.85L15.59 32.07L15.78 32.27L15.98 32.45L16.19 32.61L16.42 32.76L16.65 32.9L16.9 33.02L17.15 33.13L17.42 33.22L17.69 33.3L17.98 33.37L18.27 33.42L18.58 33.46L18.89 33.48L19.21 33.49L28.79 33.49L29.11 33.48L29.42 33.46L29.73 33.42L30.02 33.37L30.31 33.3L30.58 33.22L30.85 33.13L31.1 33.02L31.35 32.9L31.58 32.76L31.81 32.61L32.02 32.45L32.22 32.27L32.35 32.13L32.47 31.98L32.59 31.8L32.71 31.6L32.82 31.38L32.93 31.14L33.04 30.88L33.14 30.59L33.23 30.28L33.33 29.96L33.42 29.6L33.5 29.23L33.58 28.84L33.58 19.16L33.57 18.85L33.55 18.55L33.51 18.25L33.45 17.96L33.38 17.68L33.3 17.41L33.2 17.15L33.08 16.89L32.95 16.65L32.81 16.42L32.66 16.19L32.49 15.98L32.31 15.78L32.11 15.59L31.9 15.42L31.68 15.26L31.44 15.12L31.2 14.99L30.94 14.88L30.68 14.78L30.4 14.7L30.12 14.63L29.82 14.58L29.52 14.54L29.21 14.52L28.89 14.51L19.21 14.51L18.89 14.52Z" id="aIDEyYzwf"/></defs><g class="currentLayer" style=""><title>Layer 1</title><g id="svg_1" class="selected"><g id="svg_2"><use xlink:href="#b25Ao6D0KP" opacity="1" fill="#ffffff" fill-opacity="1" id="svg_3"/><g id="svg_4"><use xlink:href="#b25Ao6D0KP" opacity="1" fill-opacity="0" stroke="#000000" stroke-width="1" stroke-opacity="0" id="svg_5"/></g></g><g id="svg_6"><g id="svg_7"><use xlink:href="#a1xZ10VLTc" opacity="1" fill="#000000" fill-opacity="1" id="svg_8"/><g id="svg_9"><use xlink:href="#a1xZ10VLTc" opacity="1" fill-opacity="0" stroke="#000000" stroke-width="1" stroke-opacity="0" id="svg_10"/></g></g><g id="svg_11"><use xlink:href="#g1IxsBKhxG" opacity="1" fill="#000000" fill-opacity="1" id="svg_12"/><g id="svg_13"><use xlink:href="#g1IxsBKhxG" opacity="1" fill-opacity="0" stroke="#000000" stroke-width="1" stroke-opacity="0" id="svg_14"/></g></g><g id="svg_15"><use xlink:href="#aIDEyYzwf" opacity="1" fill="#000000" fill-opacity="1" id="svg_16"/><g id="svg_17"><use xlink:href="#aIDEyYzwf" opacity="1" fill-opacity="0" stroke="#000000" stroke-width="1" stroke-opacity="0" id="svg_18"/></g></g></g></g></g></svg>