<svg version="1.1" xmlns="http://www.w3.org/2000/svg" xmlns:xlink="http://www.w3.org/1999/xlink" preserveAspectRatio="xMidYMid meet" width="48" height="48"><rect id="backgroundrect" width="100%" height="100%" x="0" y="0" fill="none" stroke="none" style="" class=""/><defs><path d="M24 0C10.75 0 0 10.75 0 24C0 37.25 10.75 48 24 48C37.25 48 48 37.25 48 24C48 10.75 37.25 0 24 0Z" id="a30gSf05l1"/><path d="M35.36 14.97C33.16 14.31 24.28 14.06 24.28 14.06C24.28 14.06 15.4 13.81 13.17 14.34C11.93 14.63 10.95 15.56 10.59 16.78C9.93 18.98 9.8 23.6 9.8 23.6C9.8 23.6 9.67 28.22 10.2 30.45C10.49 31.69 11.42 32.67 12.64 33.03C14.84 33.69 23.72 33.94 23.72 33.94C23.72 33.94 32.6 34.19 34.83 33.66C36.07 33.37 37.05 32.44 37.41 31.22C38.07 29.02 38.2 24.4 38.2 24.4C38.2 24.4 38.33 19.78 37.8 17.55C37.51 16.31 36.58 15.33 35.36 14.97Z" id="bxVPFfr3A"/><path d="M21.04 28.18L21.28 19.66L28.54 24.13L21.04 28.18Z" id="b5Du4tUhf"/></defs><g class="currentLayer" style=""><title>Layer 1</title><g id="svg_1" class=""><g id="svg_2"><use xlink:href="#a30gSf05l1" opacity="1" fill="#ffffff" fill-opacity="1" id="svg_3"/><g id="svg_4"><use xlink:href="#a30gSf05l1" opacity="1" fill-opacity="0" stroke="#000000" stroke-width="1" stroke-opacity="0" id="svg_5"/></g></g><g id="svg_6"><g id="svg_7"><use xlink:href="#bxVPFfr3A" opacity="1" fill="#282828" fill-opacity="1" id="svg_8"/><g id="svg_9"><use xlink:href="#bxVPFfr3A" opacity="1" fill-opacity="0" stroke="#000000" stroke-width="1" stroke-opacity="0" id="svg_10"/></g></g><g id="svg_11"><use xlink:href="#b5Du4tUhf" opacity="1" fill="#ffffff" fill-opacity="1" id="svg_12"/><g id="svg_13"><use xlink:href="#b5Du4tUhf" opacity="1" fill-opacity="0" stroke="#000000" stroke-width="1" stroke-opacity="0" id="svg_14"/></g></g></g></g></g></svg>